<?xml version="1.0" encoding="utf-8"?>
<!-- Generator: Adobe Illustrator 22.0.0, SVG Export Plug-In . SVG Version: 6.00 Build 0)  -->
<svg version="1.1"
	 id="svg2" xmlns:cc="http://creativecommons.org/ns#" xmlns:dc="http://purl.org/dc/elements/1.1/" xmlns:rdf="http://www.w3.org/1999/02/22-rdf-syntax-ns#" xmlns:svg="http://www.w3.org/2000/svg"
	 xmlns="http://www.w3.org/2000/svg" xmlns:xlink="http://www.w3.org/1999/xlink" x="0px" y="0px" viewBox="0 0 1049 384"
	 style="enable-background:new 0 0 1049 384;" xml:space="preserve">
<style type="text/css">
	.st0{fill:#F3F3F3;}
	.st1{fill:#F90606;}
</style>
<g id="g10">
	<path id="rect902" class="st0" d="M0,0h1049v384H0V0z"/>
	<path id="path14" class="st1" d="M216,1.4c-14.9-0.1-22.2,2.5-38.4,7.4c-15.3,4.6-44.7,12-61.5,17.2S82.7,42.3,74.9,52.9
		S60.6,72.7,56.7,76.3S48.5,82,48.5,82S48,89.1,47,96.4c-0.5,3.4-1.3,5.7-3.5,7.9c-4.6,4.6-5.1,7.4-8.6,15.9
		c-3.5,8.6-5,24.3-6.6,32.1s-4.3,13.3-8.8,18S11,180.1,8,186.6S4.1,200,3.4,205.4c-0.7,5.4-0.7,13.5-0.7,13.5s4.3,1.3,6.7,4
		c2.4,2.6,3.4,4.4,4.1,8.9c1,6.1,1.6,16,1.7,19.7c0.1,3,0.8,9.2,1.1,15.2c0.4,6.8,0.3,13.6,0.4,15.7s0.8,6.2,2.8,9.7
		c1.8,3,4.4,5.2,6.4,6.3c4.2,2.4,18.5,5.7,24.3,6.5c3.6,0.5,6.9,1.4,10,2.9s5.9,2.8,8,7.7s4.6,10.2,6.7,14.2s9,11.2,13.4,14.1
		s19.9,11.7,22.2,13.3s3.8,3.2,3.8,3.2s0.2,5.6,0.1,7.8c-0.1,2.2-0.8,4.6-1.4,6.2c-1.4,3.9-2.2,8.1-2.2,8.1s13.7,0,18.8-0.8
		c5.1-0.7,11.3-3,14.3-5s7.9-6.4,11.5-9.3s9.7-6.5,9.7-6.5s6.8,3.4,8.5,4.9c1.7,1.4,2.9,2.4,3.1,4.6c0.3,2.2,2.1,9,2.6,9.8
		s0.9,1.4,2.1,1.4c1,0,1.8-0.3,2.5-1.7s8.9-14.3,11.5-17.7c2.6-3.4,5.9-7.2,7.6-8.5c0,0,3.8,4.1,5.9,7.4c2.1,3.4,4.9,9.3,4.9,9.3
		s3.6-0.3,6.3-2c2.8-1.7,5.4-2.4,7.7-7.7c2.2-5.1,5.7-14,7.7-17.3c1.4,1.1,5.1,4.4,7.3,6.9s4.2,4.8,5.9,5.8c1.7,1.1,3.4,1.9,3.4,1.9
		s5.4-5.5,8.7-12.1c2.8-5.7,6.9-14,9.8-18c8.8,2.1,14.8,5.3,24.5,7.5c0,0,4-11.8,5.6-21.6c1.6-9.9,2.1-23.2,2.1-23.2s5,0.7,7.7,3
		s4,4.1,7,6.3s6.4,3.5,6.4,3.5s1.6-2.5,1.9-6.4c0.3-4.9-0.1-35-0.1-35s3.7-0.3,8.2-0.2c4,0.2,9.2,0.8,9.2,0.8
		c-0.6-15-2.7-28.4-4.6-44.7c6.9,2,10.9,5.7,17.6,6.8c-0.3-4.8,0.2-14,0.2-18.5c0-4.6-1.3-10.1-3.4-14.7c-1.9-4.3-7.8-15-9.4-17.5
		s-3.7-9.7-3.7-9.7c3.7-0.1,8.7-1.1,12.8-1.1c4.2,0,9.2-1.5,9.2-1.5s-0.3-3.4-0.7-7.4c-0.4-4-2.4-9.4-5.2-13.6
		c-2.7-4.1-11-16.1-13.2-18.8c2.3-2.1,8.3-2.6,11.4-4.3c-0.5-3.1-2.5-5.8-4.1-8c-2.4-3.2-10.7-11.8-14.9-14.6
		c-4.2-2.8-11.2-10.7-14.4-15.6c2.9-4.1,8.7-5.9,12.6-9.5c0,0-0.4-3.4-3.1-6.4c-2.6-3-4.6-4.6-8.3-6.8c-3.8-2.1-12.7-8.2-16.8-14.1
		c-4.1-5.9-5-8.4-7.2-13.1c-2.1-4.7-6.5-8.9-12.6-12.2c-5.6-3.1-12.3-6.3-37.7-11.5C247.8,5.8,230.9,1.6,216,1.4L216,1.4z
		 M199.1,14.9c5.2,0,10.2,0.4,13.9,1.7c8.3,2.9,17.4,9.7,18.4,12.6c1,3,1,4.8,1,4.8s-7.9,1.3-13.7,1.6s-23.7,1-29.8,2.2
		c-8,1.6-19.4,5.2-25.2,7.5s-19.8,7.7-25.4,9.6c-5.6,1.9-11.7,2.8-11.7,2.8s-5.4-5.7-7.8-7.8s-6.6-5.4-6.6-5.4S138.5,30,147,27
		s25.2-9.4,33.6-10.6C185.4,15.7,192.4,14.9,199.1,14.9z M228.3,41.1c5.8,0,11.3,0.2,16.1,0.8c15.5,1.9,31.4,9.4,35,10.9
		s5.9,5.7,5.9,5.7s-0.1,0.9-2.2,2.5s-11.9,6.9-18.9,8.6c-6,1.5-18.6,3.1-26.8,3.3c-8.2,0.3-21.6-0.2-34,0.3
		c-12.4,0.6-28.8,2.1-36,3.1s-15.3,3.3-15.3,3.3s-1.8-4.5-3-7.6s-3.5-7.7-3.5-7.7s9-6.8,17.2-10.6s9.5-4.4,29.3-8.9
		C201.8,42.7,215.6,41.2,228.3,41.1z M102.5,58.9c0,0,6.2,4.6,11.2,10.7s13.8,18.1,22.2,34c8.4,16,17.1,34.2,25.4,60.6
		c8.4,26.4,13,43.2,13.1,55.9s-5.6,19.5-11.5,20.8s-14.8,0.7-20.7-4.5c-6-5.1-11.4-12.6-14-29.6c-2.6-16.9-5.1-25.5-10.7-33.8
		s-19.4-19.8-26.3-26s-19-17.8-21.8-19.1c-2.8-1.3-5.2-2.1-5.2-2.1s0.1-8.4,0.7-14.8s2.5-13.1,7.7-19.6c5.3-6.6,14.7-17.3,19.5-22.8
		S102.5,58.9,102.5,58.9z M274.8,78.9c2.9,0,5.4,0.5,7.2,1.3c3.5,1.6,7.3,3.5,10.4,6.7s9.6,9.5,11.3,12.6s5.7,8.1,5.9,10.7
		c0.3,2.6,0.2,2.9-1.7,4.6c-1.9,1.8-6.2,3.8-9,4.2c-2.8,0.4-8.5,0.3-12.4-0.8c-3.9-1.1-14.4-4.3-20.7-6.3c-6.2-2-15.4-5.3-22.2-5.1
		c-6.8,0.2-19.9-1.3-23.3-2.1c-3.5-0.8-13.4-4.5-18.2-4.4s-37.9,0.3-37.9,0.3s-0.1-2.8-0.1-6.5c0.1-3.7,2.6-7.2,6.6-9.4
		c3.9-2.2,7-1.8,10.9-1.7c3.9,0.1,29.4,1.6,39.6,2.6s12.6,0.5,19.8-0.9s17.4-3.3,24.1-4.7C268.6,79.2,271.9,78.9,274.8,78.9z
		 M193,109.6c2.8-0.1,5.2,0.4,8,0.8c3.2,0.4,7,2.1,12.7,3.9c5.6,1.8,8.7,2.1,19.5,3.7c10.7,1.6,37.8,6.2,55.4,10.4
		s28.6,7.9,33.9,11.8c5.3,3.9,7.3,6.9,7.3,6.9s-5.2,3.5-8.4,4.9c-3.1,1.3-8.8,4.3-17.2,1.5c-8.4-2.8-32.6-8.8-40.4-10.4
		c-7.8-1.7-14.3-4.1-20.3-7.7c-6-3.5-9.8-5.8-15.1-8.1s-8.7-4.4-14.4-4c-5.8,0.4-19.2,1.4-24.6-0.1c-5.4-1.5-8.9-3.2-8.9-3.2
		s1.3-4.7,2.7-6.2c1.4-1.6,5.5-3.7,8.8-4C192.2,109.6,192.6,109.6,193,109.6L193,109.6z M188.5,130.8c0,0,8.4,1.6,15.1,3.2
		c6.7,1.6,17.7,3.4,26.3,4.6s34.8,6.7,48.2,11s32.3,15.7,36.1,19.2s9.5,12.7,11,16.6s1.7,9.3,1.7,9.3s-7.3,0.2-16.6-0.2
		s-18.5-2.8-33.4-10.1c-15-7.4-17.7-11.2-25.2-15.3c-7.5-4.2-16.2-7.8-20.8-10.5s-10.7-3.9-18.5-5s-27.3-2.8-27.3-2.8
		s1.5-5.4,2.3-9.2S188.5,130.8,188.5,130.8z M60.1,157.3c0.6,0,1.2,0,1.7,0c4.4,0.3,13,2.9,17.9,6.1c4.9,3.1,17.2,11.6,22.8,17.7
		c5.6,6.1,8,10.9,8,10.9s-2.2,3.9-3.2,6s-3.6,5.4-7.5,9.2c-4,3.7-6.6,6.9-9.4,8.9s-10.6,4.7-17.1,3.9s-11.9-3.3-15.1-6.4
		c-3.2-3.2-13.8-9.7-15.4-10.5c-1.6-0.9-3-1-3.7,0.6s-3.4,7.4-3.4,7.4s-6.6,0-11.9,0.3s-11.6,0.8-11.6,0.8s2.5-14.3,4-19.7
		s5.2-12.9,8.9-16.7c3.7-3.7,12.1-8.9,12.1-8.9s4.4,6,6.5,8.7c2.1,2.6,2.7,5,5.1,6.1c2.4,1.1,3.8,1.5,5,1.5s1-1.3,1.8-3.1
		c0.7-1.8,2.9-7.3,2.9-7.3s9.1-0.9,12.4-1.3c3.4-0.3,5.8-0.4,5.8-0.4s-0.3-2.4-2.2-4.1s-4.2-4.2-8.4-4.7s-8.6-0.9-10.7-1.9
		c-2-1-3.8-2.3-3.8-2.3S56.1,157.3,60.1,157.3L60.1,157.3z M199.2,164.3c2.4,0,5.8,0.2,9.8,0.6c7.9,0.9,11.4,3,21.1,6.1
		c9.8,3,26.1,11.5,32.5,14.9s31.3,16.8,35,18.8s10.5,6.6,14.7,11.3c4.1,4.7,4.1,10.9,4.7,14.3c0.6,3.4,0.3,8,0.3,8
		s-12.8-3.9-20.4-6.5s-20-10.8-27.9-16.9c-8-6.1-19.6-14.8-28.5-21.3s-22.2-11.7-26.3-13.3c-4-1.6-13.1-3.1-15.8-4.2
		s-2.8-3.8-2.9-5.9s-0.1-5.8-0.1-5.8S196.8,164.3,199.2,164.3L199.2,164.3z M205.8,190.3c2.8,0,6.7,0.1,9.2,0.5
		c4.6,0.7,15.5,5.2,21.9,9.8s12.4,11.2,17.1,15.4s10.3,8.5,16,12.1s15.1,6,20,9.8s11,12.2,12.3,17.2s-1.3,10.6-6.6,13.6
		c-5.3,3-11.4,0.7-18.8-3.6c-7.5-4.3-11.1-11.5-14.1-15.5s-5.7-6.5-10.3-8.7c-4.5-2.2-14.9-6.1-18.7-7.7c-3.8-1.7-5.5-5.1-6.7-7.1
		c-1.2-2.1-10.4-16.3-13.7-21.1c-3.2-4.8-5.3-4.4-7.5-7.8c-2.2-3.4-4.1-6.7-4.1-6.7s0.5,0,1.4,0C204,190.3,204.8,190.3,205.8,190.3
		L205.8,190.3z M188.1,199.6c0,0,6.9,3,9.9,5.1s9.2,7.8,12.8,11c3.7,3.2,10.1,12.4,12.1,16.4s3.2,5.6,8.4,8.9s14.6,9.3,21.5,15.5
		c6.9,6.1,17.3,13.7,20.5,16.3s5.6,3.9,5.6,3.9s-0.4,7.1-1.1,11.3c-0.6,4.2-3.6,6.9-4.8,9.5c-1.2,2.6-2.5,2.2-3.7,1.7
		s-6.8-3.9-14.9-8.8s-12.9-10.3-19.5-17.2s-17.7-21.3-27.6-37.2S188.1,199.6,188.1,199.6z M98.5,219.4c0,0,1.3,1.4,2.3,2.8
		s2.6,2.9,2,7.1s0.7,10.5,3.8,16.4c3.1,5.9,2.7,7.3,3.2,12.3c0.5,5.1-3.5,9.8-6.7,13.7c-3.3,3.8-8.7,6.5-14.6,10.6s-16.7,8.2-29.6,9
		s-23.3-2.7-27.6-3.4c-4.4-0.8-6.5-0.8-6.5-0.8s-0.3-1.3,0.1-2.8c0.3-1.5,0.9-2.9,0.9-5.6s0.8-3.2,2-4.6s2.3-1.8,3.7-4.1
		c1.4-2.2,0-4.4-2-7.8c-2-3.3-2.6-3.5-3.6-8.1c-0.9-4.5-1.5-7.1-1.5-7.1s2.7-0.8,5.8-0.9s13,2.2,16.3,3.1c3.3,0.9,7.6,2.9,9.9,3.3
		c2.3,0.4,4.2-0.4,4.2-0.4s-0.2-0.7-1-2.9s-1.6-3.6-5.5-7.3s-10.9-4.6-16.8-4.9c-6-0.3-11.8-0.2-11.8-0.2s0.9-8.1,0.7-10.1
		c-0.2-2-0.2-3.2,1.5-4.9s3.7-0.7,7-0.5s4.2-0.5,5.5-0.7s3.1-0.2,7.4-0.5s6.8,0.3,11.2,2.8s6.1,6.4,7.8,10.6s5.6,14.4,6.2,16.1
		c0.6,1.6,2.5,2,3.5,0.9s1.8-1.8,3.7-4.5s8.6-12.1,9.8-14.7s3.4-7.2,5-8.9S98.5,219.4,98.5,219.4L98.5,219.4z M195.7,243.5
		c0,0,7.2,3.6,9.7,6.2c2.6,2.6,4.9,5.2,5.8,9.1c0.9,3.9,6.2,12.4,11.8,16.1s12.9,7,16.5,11.8c3.6,4.9,7.4,11.3,7,17.2
		s-3.6,13.2-3.6,13.2s-4.2-1.3-9.8-3.6c-5.5-2.3-14-8.4-17.4-12s-11.4-13-16-24.1s-4-18.3-4.3-24S195.7,243.5,195.7,243.5z
		 M182.2,265.2c0,0,1.7,0.9,2.5,1.4c0.9,0.5,2,1.6,3,3.4s5.9,10.4,8.9,16s9.7,18.4,11.1,22.4c1.4,3.9,3.1,9.6,3.4,11.5
		c0.3,1.9,0.2,4.6,0.2,4.6s-1.1-0.2-2.8-0.6c-1.7-0.3-2.9-0.2-8.4-2.3c-5.5-2.1-10.1-6.8-13.4-11.4c-3.3-4.5-6.5-14.1-6.9-17
		s-0.7-16.4-0.6-19.3s0.4-3.3,1.1-4.9C181,267.3,181.9,265.5,182.2,265.2L182.2,265.2z M155.5,275.3c0,0,6.6,2.8,11.5,7
		c3.9,3.4,7.3,9.5,9,13.7c1.6,4.3,3.8,14.7,3.6,20s-1.5,16.9-1.5,16.9s-8.6-5.7-12.5-9.2s-9.2-13.5-10.3-20.9
		C154.2,295.5,155.5,275.3,155.5,275.3z M73.7,304.7c0,0,3.6,0,8.1,0.1s8.4,0.9,12.5,3s8.8,7.2,11.7,13.8c2.9,6.5,4.7,16.6,4.7,16.6
		s-6.3-1.7-12.5-5s-14.3-11.4-18-16.6S73.7,304.7,73.7,304.7z"/>
	<path id="path833" class="st1" d="M493.4,113.5l-48.9,126.6H467c0,0,1-1.4,1.7-3.5c0.9-2.8,5.8-17.4,6.6-19.9c1-3,1.7-3.6,3.1-3.6
		H528c1.5,0,2.4,0.8,2.9,2.3c0.8,2.5,7.5,20.1,8.2,22.5c0.5,1.7,1.5,2,2.5,2l21.2,0.2l-50-126.5c-3.1,0-5.5,1-9.8,1
		C498.8,114.7,496.2,113.5,493.4,113.5L493.4,113.5z M503,139.6l20.1,52c-2.7,2-5.6,3-9.9,3h-18.6c-4.3,0-7.6-1.1-10.9-3L503,139.6z
		"/>
	<path id="path839" class="st1" d="M704,132.5l-42,107.9h19.3c0.9,0.1,1.4-1.1,1.6-2.2c0.2-1.4,5.5-16.7,6.2-18.9
		c0.5-1.5,1.1-2,2.1-2H734c0.9-0.1,1.7,0.6,2,1.8c0.6,2.1,6.8,17.8,7.5,19.9c0.3,0.8,1,1.2,1.7,1.3l18.4,0.2l-42.8-107.9
		c-2.6,0-4.8,0.8-8.4,0.9C708.3,133.6,706.4,132.5,704,132.5L704,132.5z M712.1,154.3l17.2,44.4c-2.3,1.7-4.8,2.8-8.5,2.8H705
		c-3.6,0-6.5-0.8-9.3-2.4L712.1,154.3z"/>
	<path id="path841" class="st1" d="M620.9,135.1c-0.5,0-1,0-1.4,0c-7.4,0.3-12.1,0.9-21.6,1.3s-24.9-0.6-24.9-0.6s0.1,4.5,0.9,21.2
		c0.8,16.7,0.3,43.2-0.1,55.9c-0.3,12.7-1,27.6-1,27.6h20.6c0,0-0.5-7.9-0.8-12.4c-0.3-4.4,0-15.5,0-15.5s4.2-0.2,8.7,0
		c4.4,0.1,10.9,0.8,19.4,0.8s19.6-3.5,24.2-7c4.6-3.5,13.6-15.1,13.6-31.3s-7.5-25.6-13.9-31.7C638.6,137.6,628.3,135.1,620.9,135.1
		z M611.3,149c8.2,0,16.7,0.7,22.2,7.3c5.7,6.7,6.2,13.7,6.2,19.2c0,5.6-2.9,15.6-9.2,19.7c-6.7,4.4-16.3,3.6-22.7,3.7
		s-15.3-1-15.3-1s-1.1-12.4-1.3-23.8s1.3-23.8,1.3-23.8S603,149,611.3,149z"/>
	<path id="path845" class="st1" d="M874.1,135.7c3.2,0,6.8-0.7,9.5-0.7c0,0,0.4,10.1,0.2,20c-0.3,9.9-0.6,19-0.7,20.1
		c-0.1,2.6,2.2,3.7,4.9,3.7c2.9,0,45.2,0,48.3,0.1c2.6,0.1,4.4-1.4,4.4-3.2c-0.1-2.5,0-11.4,0-19.4c-0.1-8-0.6-21.2-0.6-21.2
		c2.8-0.1,5.6,0.6,9.4,0.6c3.5-0.1,6.8-0.6,9.4-0.6c0,0-0.2,9.7-0.1,20s-0.8,22.6-0.7,32.6c0.1,10,0.6,21.6,1,31.3
		s0.9,21.5,0.9,21.5h-20.1c0,0,0.1-9.2,0.4-21.4c0.3-12.2,0.6-19.8,0.6-21.5s-0.5-3.6-3-3.5s-17.9-0.3-25.6-0.3s-23.6-0.1-25.6-0.1
		c-1.9,0-3,1.7-3,3s0.1,15.1,0.3,21.7c0.2,6.6,0.2,21.7,0.2,21.7h-19.7c0,0,0.8-14,1.1-24s1.1-18.3,1.1-28.9s-1.4-24.8-1.6-34.7
		s-0.4-17.4-0.4-17.4C866.9,135,870.6,135.6,874.1,135.7L874.1,135.7z"/>
	<path id="path847" class="st1" d="M976.2,135.2c0,0,19.5,0.9,29.3,0.9s21-0.5,26.2-0.7c5.7-0.3,10.2-0.3,10.2-0.3
		c0.5,0,1.1,0.1,1.3,0.9c0.2,1.1,0.3,2.7,0.6,4.5c0.5,3.3,1.3,6.3,1.4,8.7c0,0-15.4,0.4-22.9,0.1c-7.5-0.4-13.4-0.3-24.2-0.2
		c-2.2,0-3.3,0.9-3.3,3.4c0,2.4-0.2,21.1-0.2,23.1c0,2.4,1.6,3.2,3.5,3.2s32.8-0.3,37.5-0.5c3.6-0.1,7.2,0,7.2,0
		c0,2.6-0.3,5.1-0.3,7.9c0,2.6,0.3,4.8,0.3,7.7c-9.2,0-16.7-0.8-23.6-0.6s-19,0.1-20.9,0c-2-0.1-3.5,0.3-3.6,3.1s-0.2,17.1-0.1,21.2
		c0.1,4.1,0.9,8.3,5.4,8.3s31.7-0.9,38.2-1c6.4-0.1,8.9-0.1,8.9-0.1s0.4,2.8-0.5,7.2c-0.5,2.7-0.7,5.8-0.7,7.7c0,1-0.3,1.5-1.3,1.4
		c0,0-11.7-0.6-19.8-0.6c-8,0-49,0.3-49,0.3s2.3-31.3,2-54.3S976.2,135.2,976.2,135.2L976.2,135.2z"/>
	<path id="path849" class="st1" d="M853.8,148.5c0,0,1.3,1.5,0.4,3.1c-0.9,1.6-5.9,10.1-6.5,11.1s-2.2,1.7-3.4,0.4
		c-1.3-1.3-8.7-9.5-15.1-11.9c-7.1-2.7-19.2-2.2-26.6,2.9c-7.9,5.4-12.8,14.4-14.5,24.3s-1.4,19.9,3,29.5
		c4.5,9.6,16.5,18.2,25.8,18.2c8.6,0,15.3-2.3,20.2-6.3c4.9-3.9,6.8-6.1,7.8-7.1s1.8-0.9,2.6,0.1s6.7,8.7,7.3,9.5s1,1.8-0.1,3.2
		c-1.1,1.3-9.1,10.6-20.2,14.6c-11.2,4-28.7,4.6-41.2-3.3c-14.8-9.5-21.9-25.8-23.8-40.4c-1.9-14.6,0.7-34.1,13.6-48.2
		s26.9-15.8,41-14.8C839.5,134.4,849.6,143.7,853.8,148.5L853.8,148.5z"/>
	<path id="path851" class="st1" d="M622.2,269.8c-1.5-2.2-4.8-6.1-8.2-8.2c-3.7-2.1-8.6-3.9-14.5-3.9s-12.6,2.1-16.6,5.8
		c-4.2,3.9-8.7,9.1-10.4,16.5c-2,8.3-0.4,19.7,4.7,27.5c5.1,7.8,14.1,11.6,22.2,11.6c0,0,8.2,0,12.1-1.7c4-1.8,7.5-4,7.5-4
		s1.2,1.2,2.5,2.1c1.4,0.9,3.3,1.6,3.3,1.6s0-3.3,0-6.1s-0.8-7.7-0.9-11.3c-0.1-3.6,0.3-10.1,0.3-10.1c-1.5,0-2.9,0.3-4.6,0.3
		c-1.4,0.1-3.5-0.3-5.1-0.3c0,0,0,2.2,0,4c0,1.7,0.4,5.2,0.5,7.8c0.2,2.5,0.4,4.6,0.4,4.6c-3.5,2.6-9,4.8-15.3,4.7
		c-4.8-0.1-9.2-1.9-12.5-6c-3.7-4.7-5.2-10.2-5.5-15.7c-0.2-5.3,1-11.1,4.1-15.6c2.6-3.8,7.6-6.7,12.8-6.7c6.4,0,9.4,2.3,11.7,4.5
		s4.9,5.7,4.9,5.7C617.8,274.8,620,271.6,622.2,269.8L622.2,269.8z"/>
	<path id="path853" class="st1" d="M634.5,278.9h8.8c-0.8,5.3-1.2,11.3-1.2,16.5c0,4.5,0,9.6,1.4,11.3c1.4,1.7,3.2,4.2,7.2,4
		s7.8-2.1,9.5-4.3s2.4-2.9,2.6-7c0.2-4.1,0.1-20.6,0.1-20.6h8.8c-0.2,2.6-0.5,12-0.5,14.4c0,5.3-0.1,14.8,0,18s0.3,6.7,0.3,6.7h-8.7
		c0,0-0.1-4.6-0.1-5.2s-0.8-1.1-1.4-0.5c-1,1-3.9,3.2-7.4,4.7s-7,1.7-9.4,1.5c-2.5-0.1-8.1-1.8-10.1-7.4s-1.5-11.1-1.5-16.2
		C633,289.5,633.1,284.3,634.5,278.9L634.5,278.9z"/>
	<path id="path855" class="st1" d="M681.8,318.4h8.5c0,0,0.1-24.2,0.1-25.9s0.7-2.6,1.6-3.7c1.5-1.6,5.2-4.3,9.1-4.7
		c3.2-0.4,6.2,1.5,7.2,3.8c1,2.1,1.4,6.1,1.5,13.6c0.1,5.8-0.6,13.5-0.7,15.2c-0.1,0.9,0,1.8,1.1,1.8h7.8c0.3-9.6,0.4-23.8,0-29.8
		c-0.3-3.9-2.1-8.1-4.7-9.8c-2.4-1.5-7-2.7-12.1-0.8c-4,1.4-9.3,5.5-9.9,6c-0.5,0.5-1.1,0.2-1.2-0.5c-0.1-1.1-0.3-3.1-0.5-4
		c-0.1-0.5-0.6-0.9-1.1-0.8c-1,0.1-5.2,0.9-6.5,1.1c-0.9,0.2-1.2,0.6-1,1.5c0.4,1.9,1.1,6.1,1.1,10.7S681.8,318.4,681.8,318.4
		L681.8,318.4z"/>
	<path id="path857" class="st1" d="M778.5,271l4-8.4c0,0-5.7-2.9-9.3-3.6c-4.2-0.8-11.2-0.3-15.5,2.3c-4.3,2.6-7.9,7.8-8,13.1
		s2.5,11,7.9,13.9c5.5,2.9,12.1,6,12.7,10.1c0.6,4-0.8,7.8-4,9.1c-3.2,1.3-11.9,1.3-14.5,1.2c-1.5-0.1-1.6,0.6-1.3,1.8
		c0.5,1.9,1.4,5.8,1.6,7.6c0.1,1.1,0.6,1.2,2.1,1.2c1.6,0,12.2-0.8,17.4-4s8.1-7.1,8.9-13.2s-0.6-11.1-6.8-15.2s-13.3-5.1-14.2-10.3
		c-0.9-5.2,1.6-8.6,7.8-9.3S778.5,271,778.5,271z"/>
	<path id="path859" class="st1" d="M790.5,258.9c3-0.1,4.7,0.1,6.1-0.3c1.5-0.4,2.4-0.2,2.4-0.2s0.2,8.7,0.2,14.8s0,9.1-0.1,9.9
		c-0.1,0.6,0.8,1,1.2,0.5c0.8-1,8-6.6,14.1-6.7c3.1,0,6.8,1.3,9.2,3.8s3.5,6.4,3.6,10.3c0.2,7.8,0.2,27.3,0.2,27.3h-9.7
		c0,0-0.1-24.1-0.1-27.7c0-3.5-3.2-6.1-6-6.1c-3.5-0.1-6.4,1.8-8.6,3.3c-2.3,1.7-3.9,3.3-3.8,5.1c0.1,3,0.1,25.5,0.1,25.5h-8.8
		c0,0-0.1-23.1-0.2-34.2s-0.5-19.2-0.7-21c-0.2-1.7-0.4-1.9-0.6-2.9C788.8,259.3,790.5,258.9,790.5,258.9L790.5,258.9z"/>
	<path id="path861" class="st1" d="M854,276.9c-5.4,0-10.5,1.7-14.4,5.8c-3.3,3.5-6.1,9.3-6.2,15.6c0,5.5,1.9,10.7,5.5,14.6
		c3.7,4.1,9.9,6.7,14.6,6.7c4.7,0,9.7-1.6,13.9-5.7s6.7-10.5,6.7-16s-2-11-5.2-14.5C865.5,279.8,859.4,276.9,854,276.9z M853.7,284
		c3.7,0,7.8,2.3,9.6,5c1.9,2.6,2.7,5.7,2.6,9c-0.1,3.2-1.7,7.2-3.8,9.4c-2,2-5.7,3.5-8.9,3.5c-3.1-0.1-6.7-1.7-8.5-3.7
		s-3.4-5.3-3.4-9.7c0-2.9,0.8-6,3-8.6C846.3,286.5,850.1,284,853.7,284z"/>
	<path id="path866" class="st1" d="M904.1,276.7c-0.3,0-0.6,0-1,0c-5,0.4-9.2,3.1-11.7,6.6c-0.4,0.6-1.3,0.4-1.3-0.4s0.1-4.1,0-4.7
		s-0.4-1-1.1-0.9c-0.9,0.2-3.2,0.8-4.9,0.9c-1.7,0.2-3,0.3-3,0.3c0.4,11,0.4,37.3,0.1,52.7h9.2c0,0-0.2-16.7-0.2-17.9
		c0-1.2,0.9-1.2,1.4-0.5s3.2,3.7,6,5.1c3.7,1.9,9.5,2.4,15.5-0.9s10.2-9.4,10.3-16.4c0.1-8.5-3.2-15.7-6.6-19.1
		C913.6,278.4,908.9,276.5,904.1,276.7z M902.1,284c4.4,0,7.9,2.7,9.7,5.7s2.1,5.3,2.1,8.2c0,2.9-0.9,6.7-3,9.4s-5.4,4.5-8.4,4.6
		c-2.9,0.1-6.5-1.6-8.6-4c-2.3-2.7-3.9-6.1-3.9-9.8c0-3.2,1-7.4,3.1-9.9C895.4,285.6,898.3,284,902.1,284z"/>
</g>
</svg>
